# xmcd CD database file
#
# Track frame offsets:
#	150
#	10325
#	31557
#	53517
#	75472
#	94840
#	115217
#	135762
#	158000
#	176085
#	198872
#	219345
#	239807
#	275627
#
# Disc length: 4440 seconds
#
# Revision: 1
# Processed by: cddbd v1.5.1PL0 Copyright (c) Steve Scherf et al.
# Submitted via: CDex 1.51
#
DISCID=ac11560e
DTITLE=dream - ID
DYEAR=2004
DGENRE=JPop
TTITLE0=Identity -Intro-
TTITLE1=Fake or Truth
TTITLE2=我愛ｲ尓
TTITLE3=愛されたい
TTITLE4=Embrace Me
TTITLE5=ARC DAYS
TTITLE6=Innocent
TTITLE7=ほんとの私
TTITLE8=Hideaway
TTITLE9=天使の羽音 聴こえたら
TTITLE10=Identity -Prologue-
TTITLE11=Everlasting Snow
TTITLE12=I love world ～世界中のしあわせを歌おう～
TTITLE13=CCCD Data
EXTD=YEAR: 2004
EXTT0=
EXTT1=
EXTT2=
EXTT3=
EXTT4=
EXTT5=
EXTT6=
EXTT7=
EXTT8=
EXTT9=
EXTT10=
EXTT11=
EXTT12=
EXTT13=
PLAYORDER=
